# xmcd CD database file
#
# Track frame offsets:
#	150
#	19193
#	39336
#	57648
#	72018
#	93974
#	109994
#	124523
#	138843
#	163046
#
# Disc length: 2362 seconds
#
# Revision: 0
# Processed by: cddbd v1.5.2PL0 Copyright (c) Steve Scherf et al.
# Submitted via: CDex 1.70beta3
#
DISCID=8109380a
DTITLE=AAA - BULLMOOSE presents... FLOATIN'LAB 2
DYEAR=2015
DGENRE=avex
TTITLE0=Nobody
TTITLE1=BULLMOOSE ANTHEM
TTITLE2=Critical Point (REMIX)
TTITLE3=You Love Me
TTITLE4=Get Body
TTITLE5=WHIPLASH (REMIX)
TTITLE6=野良
TTITLE7=Serial
TTITLE8=Cryptid
TTITLE9=Ambition
EXTD=YEAR: 2015
EXTT0=
EXTT1=
EXTT2=
EXTT3=
EXTT4=
EXTT5=
EXTT6=
EXTT7=
EXTT8=
EXTT9=
PLAYORDER=
